<mxfile host="app.diagrams.net" modified="2023-02-20T04:42:16.769Z" agent="5.0 (Windows NT 10.0; Win64; x64) AppleWebKit/537.36 (KHTML, like Gecko) Chrome/110.0.0.0 Safari/537.36" etag="LvlJxRZaxI-ljN6G5gz0" version="20.8.20" type="github">
  <diagram name="第 1 页" id="uoebSKNVaRH9ee-uVrY1">
    <mxGraphModel dx="1050" dy="493" grid="1" gridSize="10" guides="1" tooltips="1" connect="1" arrows="1" fold="1" page="1" pageScale="1" pageWidth="600" pageHeight="740" math="0" shadow="0">
      <root>
        <mxCell id="0" />
        <mxCell id="1" parent="0" />
        <mxCell id="llsBucWkbsvnYULdrbN6-1" value="" style="rounded=1;whiteSpace=wrap;html=1;arcSize=4;" parent="1" vertex="1">
          <mxGeometry x="6" y="7" width="472" height="313" as="geometry" />
        </mxCell>
        <mxCell id="llsBucWkbsvnYULdrbN6-23" value="&lt;font face=&quot;Comic Sans MS&quot;&gt;Ground truth&lt;/font&gt;" style="text;strokeColor=none;align=center;fillColor=none;html=1;verticalAlign=middle;whiteSpace=wrap;rounded=0;" parent="1" vertex="1">
          <mxGeometry x="69" y="5" width="80" height="30" as="geometry" />
        </mxCell>
        <mxCell id="llsBucWkbsvnYULdrbN6-24" value="&lt;font face=&quot;Comic Sans MS&quot;&gt;CLEA&lt;/font&gt;" style="text;strokeColor=none;align=center;fillColor=none;html=1;verticalAlign=middle;whiteSpace=wrap;rounded=0;" parent="1" vertex="1">
          <mxGeometry x="215" y="5" width="80" height="30" as="geometry" />
        </mxCell>
        <mxCell id="llsBucWkbsvnYULdrbN6-25" value="&lt;font face=&quot;Comic Sans MS&quot;&gt;GeRec&lt;/font&gt;" style="text;strokeColor=none;align=center;fillColor=none;html=1;verticalAlign=middle;whiteSpace=wrap;rounded=0;" parent="1" vertex="1">
          <mxGeometry x="358" y="5" width="80" height="30" as="geometry" />
        </mxCell>
        <mxCell id="llsBucWkbsvnYULdrbN6-27" value="" style="endArrow=none;html=1;rounded=0;fontFamily=Comic Sans MS;dashed=1;dashPattern=1 4;" parent="1" edge="1">
          <mxGeometry width="50" height="50" relative="1" as="geometry">
            <mxPoint x="14" y="38" as="sourcePoint" />
            <mxPoint x="474" y="38" as="targetPoint" />
          </mxGeometry>
        </mxCell>
        <mxCell id="llsBucWkbsvnYULdrbN6-28" value="" style="endArrow=none;html=1;rounded=0;fontFamily=Comic Sans MS;dashed=1;dashPattern=1 4;" parent="1" edge="1">
          <mxGeometry width="50" height="50" relative="1" as="geometry">
            <mxPoint x="14" y="135" as="sourcePoint" />
            <mxPoint x="474" y="135" as="targetPoint" />
          </mxGeometry>
        </mxCell>
        <mxCell id="llsBucWkbsvnYULdrbN6-29" value="&lt;font face=&quot;Comic Sans MS&quot;&gt;1&lt;/font&gt;" style="text;strokeColor=none;align=center;fillColor=none;html=1;verticalAlign=middle;whiteSpace=wrap;rounded=0;" parent="1" vertex="1">
          <mxGeometry x="14" y="59" width="20" height="30" as="geometry" />
        </mxCell>
        <mxCell id="llsBucWkbsvnYULdrbN6-30" value="&lt;font face=&quot;Comic Sans MS&quot;&gt;2&lt;/font&gt;" style="text;strokeColor=none;align=center;fillColor=none;html=1;verticalAlign=middle;whiteSpace=wrap;rounded=0;" parent="1" vertex="1">
          <mxGeometry x="12" y="161" width="20" height="30" as="geometry" />
        </mxCell>
        <mxCell id="llsBucWkbsvnYULdrbN6-31" value="" style="endArrow=none;html=1;rounded=0;fontFamily=Comic Sans MS;dashed=1;dashPattern=1 4;" parent="1" edge="1">
          <mxGeometry width="50" height="50" relative="1" as="geometry">
            <mxPoint x="13" y="229" as="sourcePoint" />
            <mxPoint x="473" y="229" as="targetPoint" />
          </mxGeometry>
        </mxCell>
        <mxCell id="llsBucWkbsvnYULdrbN6-32" value="&lt;font face=&quot;Comic Sans MS&quot;&gt;3&lt;/font&gt;" style="text;strokeColor=none;align=center;fillColor=none;html=1;verticalAlign=middle;whiteSpace=wrap;rounded=0;" parent="1" vertex="1">
          <mxGeometry x="11" y="257" width="20" height="30" as="geometry" />
        </mxCell>
        <mxCell id="Y1XCkqYvg7hs-93zsCJq-1" value="" style="rounded=1;whiteSpace=wrap;html=1;fontFamily=Comic Sans MS;fontSize=12;dashed=1;arcSize=20;" vertex="1" parent="1">
          <mxGeometry x="54" y="51" width="115" height="70" as="geometry" />
        </mxCell>
        <mxCell id="Y1XCkqYvg7hs-93zsCJq-2" value="" style="rounded=1;whiteSpace=wrap;html=1;fontFamily=Comic Sans MS;fontSize=12;dashed=1;arcSize=20;" vertex="1" parent="1">
          <mxGeometry x="54" y="148" width="115" height="70" as="geometry" />
        </mxCell>
        <mxCell id="Y1XCkqYvg7hs-93zsCJq-3" value="" style="rounded=1;whiteSpace=wrap;html=1;fontFamily=Comic Sans MS;fontSize=12;dashed=1;arcSize=20;" vertex="1" parent="1">
          <mxGeometry x="54" y="241" width="115" height="70" as="geometry" />
        </mxCell>
        <mxCell id="Y1XCkqYvg7hs-93zsCJq-4" value="" style="rounded=1;whiteSpace=wrap;html=1;fontFamily=Comic Sans MS;fontSize=12;dashed=1;arcSize=20;" vertex="1" parent="1">
          <mxGeometry x="197" y="51" width="115" height="70" as="geometry" />
        </mxCell>
        <mxCell id="Y1XCkqYvg7hs-93zsCJq-5" value="" style="rounded=1;whiteSpace=wrap;html=1;fontFamily=Comic Sans MS;fontSize=12;dashed=1;arcSize=20;" vertex="1" parent="1">
          <mxGeometry x="340.5" y="51" width="115" height="70" as="geometry" />
        </mxCell>
        <mxCell id="Y1XCkqYvg7hs-93zsCJq-6" value="" style="rounded=1;whiteSpace=wrap;html=1;fontFamily=Comic Sans MS;fontSize=12;dashed=1;arcSize=20;" vertex="1" parent="1">
          <mxGeometry x="197.5" y="148" width="115" height="70" as="geometry" />
        </mxCell>
        <mxCell id="Y1XCkqYvg7hs-93zsCJq-7" value="" style="rounded=1;whiteSpace=wrap;html=1;fontFamily=Comic Sans MS;fontSize=12;dashed=1;arcSize=20;" vertex="1" parent="1">
          <mxGeometry x="340.5" y="148" width="115" height="70" as="geometry" />
        </mxCell>
        <mxCell id="Y1XCkqYvg7hs-93zsCJq-8" value="" style="rounded=1;whiteSpace=wrap;html=1;fontFamily=Comic Sans MS;fontSize=12;dashed=1;arcSize=20;" vertex="1" parent="1">
          <mxGeometry x="197.5" y="241" width="115" height="70" as="geometry" />
        </mxCell>
        <mxCell id="Y1XCkqYvg7hs-93zsCJq-9" value="" style="rounded=1;whiteSpace=wrap;html=1;fontFamily=Comic Sans MS;fontSize=12;dashed=1;arcSize=20;" vertex="1" parent="1">
          <mxGeometry x="340.5" y="241" width="115" height="70" as="geometry" />
        </mxCell>
      </root>
    </mxGraphModel>
  </diagram>
</mxfile>
